<svg width="45" height="45" viewBox="0 0 45 45" fill="none" xmlns="http://www.w3.org/2000/svg">
<rect x="10.5" y="7.5" width="15.9412" height="30.0588" rx="1.5" fill="#FFBC42" stroke="#FFBC42"/>
<rect opacity="0.5" x="11.4116" y="8.41174" width="14.1176" height="28.2353" rx="1" fill="#CCDAFC"/>
<path d="M14.2354 7H22.7059V8.82353C22.7059 9.37581 22.2582 9.82353 21.7059 9.82353H15.2354C14.6831 9.82353 14.2354 9.37581 14.2354 8.82353V7Z" fill="#FFBC42"/>
<circle cx="27.6469" cy="31.7058" r="6.35294" fill="#FFBC42"/>
<path d="M28.353 28.6594V35.0353C28.353 35.1458 28.4426 35.2353 28.553 35.2353H29.5648C29.6752 35.2353 29.7648 35.1458 29.7648 35.0353V31H30.6937C30.8719 31 30.9611 30.7846 30.8351 30.6586L28.6944 28.5179C28.5685 28.3919 28.353 28.4812 28.353 28.6594Z" fill="white"/>
<path d="M26.9414 34.7525L26.9414 28.3765C26.9414 28.2661 26.8519 28.1765 26.7414 28.1765L25.7296 28.1765C25.6192 28.1765 25.5296 28.2661 25.5296 28.3765L25.5296 32.4118L24.6007 32.4118C24.4225 32.4118 24.3333 32.6273 24.4593 32.7532L26.6 34.8939C26.726 35.0199 26.9414 34.9307 26.9414 34.7525Z" fill="white"/>
</svg>
