<svg width="45" height="45" viewBox="0 0 45 45" fill="none" xmlns="http://www.w3.org/2000/svg">
<path d="M8.06974 32.8328C8.09377 32.7148 8.19755 32.63 8.31796 32.63H35.9676C36.088 32.63 36.1918 32.7148 36.2158 32.8328C36.6209 34.8214 35.1012 36.682 33.0717 36.682H11.2139C9.18437 36.682 7.66464 34.8214 8.06974 32.8328Z" fill="white"/>
<path d="M10.9772 23.3644C11.0226 23.2503 11.133 23.1754 11.2559 23.1754H31.7037C31.8138 23.1754 31.9151 23.2358 31.9675 23.3326L36.4407 31.5967C36.6931 32.0632 36.3554 32.63 35.8251 32.63H8.31804C7.82323 32.63 7.48461 32.1305 7.66776 31.6709L10.9772 23.3644Z" fill="#8F2D56"/>
<path d="M11.3374 9.02419C11.3374 8.6343 11.6535 8.31824 12.0434 8.31824C12.4085 8.31824 12.7134 8.59666 12.7464 8.96028L14.0387 23.1754H11.3374V9.02419Z" fill="white"/>
<path d="M31.5972 9.02419C31.5972 8.6343 31.2811 8.31824 30.8912 8.31824C30.5261 8.31824 30.2212 8.59666 30.1882 8.96028L28.8959 23.1754H31.5972V9.02419Z" fill="white"/>
<circle cx="21.4676" cy="23.8507" r="6.07792" fill="#8F2D56"/>
<path d="M21.3703 26.8163C21.9272 26.8163 22.3788 26.3877 22.3788 25.8591C22.3788 25.3304 21.9272 24.9019 21.3703 24.9019C20.8133 24.9019 20.3618 25.3304 20.3618 25.8591C20.3618 26.3877 20.8133 26.8163 21.3703 26.8163Z" fill="white"/>
<path d="M23.7805 23.5529C23.7655 23.5383 23.7497 23.5253 23.7343 23.5119L23.689 23.4712C23.6816 23.4637 23.6732 23.4582 23.6637 23.4511C22.3596 22.3266 20.3639 22.3712 19.1193 23.5525L18.9734 23.6914L18.7713 23.8831C18.5253 24.1167 18.5265 24.4975 18.773 24.7314C19.0199 24.9662 19.4211 24.9666 19.6668 24.733L20.0151 24.4024C20.8066 23.6515 22.094 23.6515 22.8851 24.402L23.1366 24.6332C23.3802 24.8644 23.7776 24.864 24.0224 24.6312C24.1409 24.5192 24.2062 24.3696 24.2066 24.2106C24.207 24.0524 24.1426 23.9029 24.0241 23.7912L23.7805 23.5529Z" fill="white"/>
<path d="M25.4986 22.3696L25.2891 22.1708C25.2882 22.17 25.2878 22.1688 25.2861 22.1684L25.1207 22.0106C25.0916 21.9834 25.06 21.9597 25.0268 21.9392C22.9013 20.168 19.6684 20.2224 17.6107 22.1013C17.6008 22.11 17.5895 22.1159 17.5796 22.1254L17.2013 22.4848C16.9768 22.6975 16.978 23.0435 17.2038 23.2578C17.4291 23.4716 17.7936 23.4732 18.0181 23.2597L18.3964 22.9011C18.3989 22.8979 18.401 22.8952 18.4035 22.8932C20.0675 21.3674 22.7072 21.358 24.3845 22.862L24.6821 23.1449C24.9062 23.3576 25.2716 23.3568 25.4969 23.143C25.7218 22.9287 25.7226 22.5823 25.4986 22.3696Z" fill="white"/>
</svg>
